<?xml version="1.0" standalone="no"?>
<!DOCTYPE svg PUBLIC "-//W3C//DTD SVG 1.1//EN" "http://www.w3.org/Graphics/SVG/1.1/DTD/svg11.dtd" >
<svg xmlns="http://www.w3.org/2000/svg">
<metadata>Generated by IcoMoon</metadata>
<defs>
<font id="FunIcon" horiz-adv-x="1024">
<font-face units-per-em="1024" ascent="960" descent="-64" />
<missing-glyph horiz-adv-x="1024" />
<glyph unicode="&#x20;" horiz-adv-x="512" d="" />
<glyph unicode="&#xe600;" glyph-name="close" d="M0.026 38.411l921.626 921.626 102.4-102.4-921.626-921.626-102.4 102.4zM0.004 857.615l102.426 102.426 921.626-921.626-102.426-102.426-921.626 921.626z" />
<glyph unicode="&#xe601;" glyph-name="download" horiz-adv-x="1170" d="M627.328 224.64c0-17.6-14.336-32-32-32h-29.312c-17.664 0-32 14.4-32 32v704c0 17.664 14.336 32 32 32h29.312c17.664 0 32-14.336 32-32v-704zM603.2 141.888c-12.608-12.48-32.896-12.608-45.376-0.128l-303.616 303.616c-12.544 12.544-12.48 32.768 0.128 45.376l13.312 13.248c12.608 12.608 32.896 12.672 45.376 0.192l303.616-303.616c12.48-12.48 12.416-32.896-0.128-45.376l-13.312-13.312zM906.496 490.752c12.608-12.608 12.608-32.896 0.128-45.376l-303.616-303.68c-12.48-12.48-32.832-12.352-45.376 0.128l-13.312 13.376c-12.608 12.48-12.672 32.896-0.128 45.376l303.552 303.616c12.48 12.48 32.896 12.416 45.504-0.192l13.248-13.248zM117.312-27.008c0-17.728-14.336-32-32-32h-32c-17.664 0-32 14.272-32 32v349.248c0 17.728 14.336 32 32 32h32c17.664 0 32-14.272 32-32v-349.248zM1139.968-27.008c0-17.728-14.272-32-32-32h-32c-17.6 0-32 14.272-32 32v349.248c0 17.728 14.4 32 32 32h32c17.728 0 32-14.272 32-32v-349.248zM1106.624 36.992c17.728 0 32-14.4 32-32v-32c0-17.728-14.272-32-32-32h-1053.312c-17.664 0-32 14.272-32 32v32c0 17.6 14.336 32 32 32h1053.312z" />
<glyph unicode="&#xe602;" glyph-name="history" d="M512 960c-282.778 0-512-229.222-512-512s229.222-512 512-512 512 229.222 512 512-229.222 512-512 512zM512 12.8c-240.358 0-435.2 194.842-435.2 435.2s194.842 435.2 435.2 435.2c240.358 0 435.2-194.842 435.2-435.2s-194.842-435.2-435.2-435.2zM460.8 780.8h76.8v-332.8h-76.8v332.8zM460.8 448h358.4v-76.8h-358.4v76.8z" />
<glyph unicode="&#xe603;" glyph-name="logo" horiz-adv-x="1893" d="M1415.77 400.514c191.517 28.23 233.131-122.783 187.507-233.252l-95.677-231.261-24.763 125.33c-23.083 116.416-142.994 127.28-222.673 127.47l-1260.165 2.411zM1635.626 713.432c108.681 20.401 164.898-68.706 127.876-158.423-21.66-52.6-43.348-105.065-65.076-157.665-5.473 27.987-10.864 56.014-16.323 84-13.37 68.503-73.095 92.9-150.39 92.737-220.939 0.217-441.864 0.257-662.858 0.501 255.59 46.274 511.113 92.629 766.771 138.849zM1799.264 957.318c50.853 14.549 117.202-31.197 86.262-106.46l-43.687-105.918-10.39 54.903c-6.624 34.868-24.221 68.869-99.741 68.557l-245.011-1.016z" />
<glyph unicode="&#xe604;" glyph-name="menu" horiz-adv-x="1280" d="M1280 832h-1280v128h1280v-128zM1280 512h-1280v-128h1280v128zM1280 64h-1280v-128h1280v128z" />
<glyph unicode="&#xe605;" glyph-name="search" horiz-adv-x="1028" d="M1015.142 0.998l-235.75 235.75c62.362 75.29 99.84 171.955 99.84 277.35 0 240.358-194.842 435.2-435.2 435.2s-435.2-194.842-435.2-435.2c0-240.358 194.842-435.2 435.2-435.2 107.29 0 205.338 38.989 281.216 103.373l235.571-235.571 54.323 54.298zM85.658 514.099c0 197.939 160.461 358.4 358.4 358.4s358.4-160.461 358.4-358.4c0-88.499-32.23-169.37-85.402-231.91l-41.114-41.114c-62.515-53.146-143.386-85.376-231.859-85.376-197.965 0-358.426 160.461-358.426 358.4z" />
<glyph unicode="&#xe606;" glyph-name="down" horiz-adv-x="1017" d="M569.899 232.531v0l-61.564-61.564-492.601 492.557 61.564 61.564 431.037-430.993 430.993 430.993 61.652-61.564-431.079-430.993z" />
<glyph unicode="&#xe607;" glyph-name="weixin" horiz-adv-x="1257" d="M850.94 650.19c14.464 0 28.725-1.045 42.852-2.596-38.469 179.197-230.14 312.406-448.885 312.406-244.571 0-444.907-166.722-444.907-378.386 0-122.184 66.655-222.554 178.050-300.403l-44.504-133.85 155.529 77.983c55.63-10.991 100.303-22.32 155.832-22.32 13.958 0 27.815 0.708 41.537 1.787-8.699 29.737-13.722 60.923-13.722 93.256 0 194.369 166.924 352.122 378.218 352.122zM611.763 770.79c33.479 0 55.664-22.016 55.664-55.495 0-33.344-22.185-55.698-55.664-55.698-33.344 0-66.824 22.353-66.824 55.698 0 33.479 33.479 55.495 66.824 55.495zM300.369 659.597c-33.344 0-66.992 22.353-66.992 55.698 0 33.479 33.648 55.495 66.992 55.495s55.529-22.016 55.529-55.495c0-33.344-22.218-55.698-55.529-55.698zM1257.006 303.395c0 177.915-177.983 322.891-377.914 322.891-211.664 0-378.42-144.976-378.42-322.891 0-178.151 166.756-322.857 378.42-322.857 44.302 0 89.008 11.193 133.479 22.353l122.049-66.857-33.446 111.227c89.345 66.992 155.832 155.798 155.832 256.135zM756.436 359.059c-22.151 0-44.504 22.016-44.504 44.538 0 22.151 22.353 44.47 44.504 44.47 33.682 0 55.664-22.32 55.664-44.47 0-22.488-21.982-44.538-55.664-44.538zM1001.141 359.059c-22.016 0-44.234 22.016-44.234 44.538 0 22.151 22.185 44.47 44.234 44.47 33.344 0 55.664-22.32 55.664-44.47 0.034-22.488-22.286-44.538-55.664-44.538z" />
<glyph unicode="&#xe608;" glyph-name="guide" horiz-adv-x="956" d="M944.88 794.417l-55.96 147.903-66.914-143.284 50.926 19.398c-8.551-195.161-89.13-339.672-155.742-426.89-75.043-98.254-164.35-164.004-210.287-175.996l-2.146-0.849c-3.19-1.743-7.38-3.391-12.332-4.882 19.524 30.622 25.375 64.032 15.535 94.114-10.073 30.792-34.763 52.386-64.441 56.362-34.247 4.587-68.695-15.233-94.472-54.374-32.737-49.693-22.588-78.598-8.305-94.101 21.833-23.701 66.14-30.214 105.571-28.181-166.797-196.532-433.364-212.872-436.076-213.011l0.988-18.85c2.825 0.145 283.945 17.152 455.663 227.073 2.636 2.548 5.166 5.134 7.582 7.758 16.063 2.611 29.691 6.544 38.292 10.973 100.078 27.275 363.921 257.117 379.11 621.743l53.009-24.903zM464.931 204.247c-38.443-4.939-89.86-1.837-110.309 20.36-14.132 15.34-10.702 39.198 10.193 70.922 19.712 29.937 44.521 46.528 69.041 46.528 2.391 0 4.782-0.157 7.166-0.478 22.424-3.001 41.205-19.681 49.001-43.521 9.853-30.113 0.711-63.63-25.092-93.812z" />
<glyph unicode="&#xe609;" glyph-name="pause" horiz-adv-x="647" d="M161.684-64h-161.684v1024h161.684v-1024zM646.737-64h-161.684v1024h161.684v-1024z" />
<glyph unicode="&#xe60a;" glyph-name="forward" d="M317.722 376.704h27.75c23.373 109.824 170.829 203.213 319.334 208.282v-152.73l347.11 236.032-347.085 236.032v-152.755c-56.55-1.536-134.272-10.496-200.294-52.122-94.362-59.469-146.816-166.758-146.816-322.739zM834.995 162.56c0-18.355-15.795-33.203-35.277-33.203h-634.829c-19.482 0-35.251 14.848-35.251 33.203v497.894c0 18.33 15.795 33.203 35.251 33.203h129.306l141.082 117.555h-376.166c-25.958 0-47.027-21.043-47.027-47.027v-705.331c0-26.010 21.069-47.053 47.027-47.053h846.413c25.984 0 47.002 21.043 47.002 47.053v446.694l-117.53-117.53v-225.459z" />
<glyph unicode="&#xe60b;" glyph-name="pengyouquan" d="M711.322 16.896c8.806 4.352 17.536 8.986 26.112 13.901 34.099 19.558 66.278 43.699 95.437 72.781 12.467 12.39 23.962 25.421 34.637 38.861 26.214 32.845 47.258 68.429 63.13 105.702h-393.088c-5.299-0.819-10.598-1.485-15.898-1.869-14.106-1.050-28.314-0.41-42.317 1.843l231.987-231.219zM625.741 142.413h0.64l-0.333-0.333-0.307 0.333zM660.122 884.429c-9.318 3.123-18.739 5.99-28.314 8.55-38.016 10.214-77.875 15.821-119.142 15.821-17.613 0-34.97-1.126-52.045-3.072-41.856-4.787-81.997-15.104-119.654-30.285l277.939-276.992c4.326-3.123 8.525-6.426 12.595-9.882 10.726-9.19 20.301-19.661 28.595-31.104v326.963zM631.578 735.36l-0.486 0.461h0.486v-0.461zM924.365 654.49c-4.378 8.781-9.011 17.459-13.926 26.010-19.661 33.997-43.878 66.048-73.037 95.104-12.467 12.442-25.549 23.859-38.989 34.509-32.998 26.112-68.71 47.078-106.138 62.899v-391.68c0.87-5.274 1.51-10.547 1.894-15.872 1.075-14.054 0.41-28.186-1.869-42.138l232.064 231.168zM798.413 569.216v0.64l0.333-0.333-0.333-0.307zM948.326 300.288c3.149 9.293 6.042 18.688 8.602 28.211 10.24 37.862 15.872 77.619 15.872 118.707 0 17.587-1.126 34.842-3.098 51.891-4.813 41.677-15.155 81.664-30.413 119.219l-277.939-276.941c-3.123-4.326-6.451-8.525-9.933-12.57-9.216-10.675-19.738-20.224-31.206-28.493h328.115zM798.72 328.755l0.486 0.486v-0.486h-0.486zM363.93 11.52c9.318-3.098 18.739-5.965 28.288-8.55 38.016-10.189 77.901-15.77 119.142-15.77 17.613 0 34.944 1.101 52.045 3.046 41.856 4.787 81.997 15.104 119.654 30.31l-277.965 276.941c-4.326 3.123-8.525 6.426-12.595 9.907-10.726 9.165-20.301 19.661-28.595 31.104v-326.989zM392.474 160.589l0.461-0.486h-0.461v0.486zM99.277 243.661c4.378-8.755 9.011-17.434 13.952-26.010 19.635-33.971 43.853-66.022 73.037-95.104 12.467-12.416 25.549-23.859 38.989-34.509 32.973-26.112 68.685-47.078 106.112-62.874v391.68c-0.845 5.274-1.485 10.573-1.869 15.872-1.075 14.054-0.435 28.211 1.843 42.138l-232.064-231.194zM225.28 328.96v-0.64l-0.333 0.333 0.333 0.307zM75.648 595.482c-3.149-9.267-6.016-18.662-8.576-28.186-10.266-37.888-15.872-77.645-15.872-118.733 0-17.536 1.101-34.842 3.072-51.866 4.813-41.702 15.155-81.664 30.413-119.219l277.939 276.941c3.149 4.326 6.451 8.525 9.933 12.544 9.216 10.701 19.712 20.224 31.206 28.493h-328.115zM225.229 567.014l-0.461-0.461v0.486h0.461zM306.739 859.469c-8.806-4.352-17.536-8.96-26.086-13.875-34.099-19.558-66.253-43.75-95.437-72.781-12.467-12.416-23.936-25.446-34.637-38.886-26.189-32.845-47.232-68.429-63.104-105.702h393.062c5.274 0.845 10.573 1.459 15.923 1.869 14.106 1.075 28.288 0.435 42.266-1.843l-231.987 231.219zM392.346 733.926h-0.666l0.333 0.333 0.333-0.333z" />
<glyph unicode="&#xe60c;" glyph-name="fullscreen" d="M452.797 857.546h-431.158v80.842h431.158v-80.842zM102.481 938.388v-431.158h-80.842v431.158h80.842zM119.215 897.967l381.090-381.090-57.155-57.182-381.090 381.090 57.155 57.182zM571.203 38.481h431.158v-80.842h-431.158v80.842zM921.519-42.361v431.158h80.842v-431.158h-80.842zM904.785-1.94l-381.063 381.036 57.155 57.209 381.090-381.090-57.182-57.155z" />
<glyph unicode="&#xe60d;" glyph-name="arrow-down" horiz-adv-x="1744" d="M1711.592 780.219l-778.752-787.136c-33.664-33.984-88-33.984-121.536-0.064l-778.88 787.2c-33.536 33.856-33.536 88.896 0 122.688 33.536 33.984 87.872 33.984 121.408 0l718.272-725.696 718.016 725.696c33.536 33.984 88 33.984 121.408 0 33.6-33.792 33.6-88.768 0.064-122.688z" />
<glyph unicode="&#xe60e;" glyph-name="arrow-up" horiz-adv-x="1744" d="M1711.592-6.917c-33.408-33.984-87.872-33.984-121.408 0l-718.080 725.696-718.272-725.696c-33.536-33.984-87.872-33.984-121.408 0-33.536 33.792-33.536 88.832 0 122.688l778.816 787.2c33.536 33.92 87.872 33.92 121.536-0.064l778.752-787.136c33.6-33.856 33.6-88.832 0.064-122.688z" />
<glyph unicode="&#xe626;" glyph-name="all-channel" d="M548.514 268.8v134.737h-269.474v107.789h269.474v134.737l211.672-198.117-211.672-179.146zM512 933.053c267.453 0 485.053-217.6 485.053-485.053 0-267.48-217.6-485.053-485.053-485.053s-485.053 217.573-485.053 485.053c0 267.453 217.6 485.053 485.053 485.053zM512 960c-282.759 0-512-229.268-512-512 0-282.786 229.241-512 512-512s512 229.214 512 512c0 282.732-229.241 512-512 512v0z" />
<glyph unicode="&#xe628;" glyph-name="home" horiz-adv-x="1124" d="M559.449 957.504l-559.449-559.976 199.879-0.318 0.786-457.689 286.542 0.388 0.050 374.279 141.998-0.507-0.428-374.030 288.7-0.099 0.229 459.3 199.959 0.099-558.265 558.554z" />
<glyph unicode="&#xe629;" glyph-name="back" horiz-adv-x="582" d="M577.908 889.623l-65.815 65.815-508.207-508.183 508.207-508.207 65.815 65.815-442.368 442.391z" />
<glyph unicode="&#xe62c;" glyph-name="tips" d="M512 960c-282.765 0-512-229.235-512-512s229.235-512 512-512c282.801 0 512 229.235 512 512s-229.199 512-512 512zM435.518 698.103c0 38.983 31.638 70.621 70.621 70.621s70.621-31.638 70.621-70.621v-291.31c0-38.983-31.638-70.621-70.621-70.621s-70.621 31.638-70.621 70.621v291.31zM507.586 115.447c-41.419 0-75.034 33.58-75.034 75.034s33.58 75.034 75.034 75.034c41.454 0 75.034-33.58 75.034-75.034s-33.58-75.034-75.034-75.034z" />
<glyph unicode="&#xe62d;" glyph-name="share" horiz-adv-x="936" d="M740.99 318.203c-84.254 0-154.889-54.853-180.288-130.604l-194.071 116.932c10.559 23.788 16.674 49.796 16.674 77.473 0 22.063-4.502 42.904-11.392 62.634 2.001 0.722 4.001 1.167 5.891 2.278l226.417 183.012c34.68-35.679 83.031-57.967 136.717-57.967 105.539 0 191.071 85.532 191.071 191.071 0 105.483-85.532 191.014-191.071 191.014-105.427 0-191.014-85.532-191.014-191.014 0-23.788 4.891-46.351 12.838-67.358l-225.361-182.234c-1.611-1.001-2.724-2.39-4.058-3.557-34.958 38.515-84.976 63.189-141.109 63.189-105.483 0-191.014-85.532-191.014-191.014 0-105.539 85.532-191.071 191.014-191.071 49.908 0 94.98 19.674 128.991 50.964l224.36-135.327c2.168-1.667 4.502-2.668 6.836-3.668 12.060-93.923 91.423-166.784 188.57-166.784 105.539 0 191.071 85.532 191.071 191.071 0.056 105.427-85.476 190.959-191.071 190.959zM741.044 870.128c59.078 0 107.095-47.962 107.095-107.095s-47.962-107.095-107.095-107.095c-59.133 0-107.095 47.962-107.095 107.095s47.962 107.095 107.095 107.095zM192.286 274.965c-59.133 0-107.095 47.906-107.095 107.039 0 59.188 47.962 107.15 107.095 107.15s107.095-47.962 107.095-107.15c-0.056-59.133-47.962-107.039-107.095-107.039zM741.044 20.092c-59.133 0-107.095 47.962-107.095 107.095s47.906 107.095 107.095 107.095c59.078 0 107.095-47.906 107.095-107.095 0-59.133-47.962-107.095-107.095-107.095z" />
<glyph unicode="&#xe62e;" glyph-name="channel" horiz-adv-x="1533" d="M1218.582 802.932c0-18.842-15.292-34.133-34.133-34.133h-1124.966c-18.842 0-34.133 15.292-34.133 34.133v68.335c0 18.842 15.292 34.133 34.133 34.133h1124.966c18.842 0 34.133-15.292 34.133-34.133v-68.335zM574.282 391.216c0-19.251-15.292-34.884-34.133-34.884h-477.867c-18.842 0-34.133 15.633-34.133 34.884v66.833c0 19.251 15.292 34.884 34.133 34.884h477.867c18.842 0 34.133-15.633 34.133-34.884v-66.833zM1175.779-53.268c-10.923-10.854-30.515-8.943-43.895 4.369l-337.92 337.92c-13.312 13.312-15.292 32.905-4.369 43.895l37.82 37.751c10.923 10.923 30.515 8.943 43.895-4.369l337.852-337.852c13.312-13.312 15.36-32.905 4.369-43.895l-37.751-37.82zM1522.506 332.916c10.923-10.923 8.943-30.515-4.369-43.895l-337.852-337.92c-13.312-13.312-32.905-15.36-43.895-4.369l-37.82 37.82c-10.854 10.854-8.943 30.515 4.369 43.895l337.92 337.852c13.312 13.312 32.905 15.36 43.895 4.369l37.751-37.751zM742.149-19.476c0-19.046-15.292-34.406-34.133-34.406h-645.734c-18.842 0-34.133 15.36-34.133 34.406v67.584c0 19.046 15.292 34.543 34.133 34.543h645.666c18.842 0 34.133-15.497 34.133-34.543v-67.584z" />
<glyph unicode="&#xe62f;" glyph-name="refresh" d="M892.672 789.408c-93.696 104.48-229.312 170.592-380.672 170.592-241.056 0-442.656-166.784-497.056-391.104l95.584-39.584c37.728 187.264 203.104 328.288 401.472 328.288 116.992 0 222.208-49.376 296.832-128.064l-143.232-102.336 358.4-153.6v409.6l-131.328-93.792zM512 38.4c-117.024 0-222.24 49.376-296.864 128.064l143.264 102.336-358.4 153.6v-409.6l131.296 93.792c93.728-104.48 229.312-170.592 380.704-170.592 241.376 0 443.232 167.296 497.28 392.064l-95.456 40.832c-36.896-188.32-202.688-330.496-401.824-330.496z" />
<glyph unicode="&#xe900;" glyph-name="play" d="M512 960c-282.761 0-512-229.239-512-512s229.239-512 512-512c282.795 0 512 229.205 512 512s-229.205 512-512 512zM512-29.867c-263.885 0-477.867 213.948-477.867 477.867s213.982 477.867 477.867 477.867c263.953 0 477.867-213.948 477.867-477.867s-213.914-477.867-477.867-477.867zM372.497 667.409v-438.886l396.39 219.477z" />
<glyph unicode="&#xe901;" glyph-name="down-s" horiz-adv-x="1317" d="M658.501 192.032l-329.102 511.936h658.202l-329.102-511.936z" />
<glyph unicode="&#xe902;" glyph-name="site" d="M512 959.771c-282.769 0-512-229.231-512-512s229.231-512 512-512c282.771 0 512 229.229 512 512s-229.229 512-512 512zM801.696 277.104c9.152 43.151 14.929 88.951 16.809 136.533h135.942c-3.558-47.142-14.532-92.922-32.725-136.533h-120.026zM222.303 618.436c-9.152-43.151-14.929-88.951-16.809-136.533h-135.94c3.558 47.14 14.53 92.922 32.723 136.533h120.026zM731.771 618.436c10.255-43.693 16.425-89.444 18.432-136.533h-204.070v136.533h185.638zM546.133 686.704v199.827c15.563-4.529 30.98-12.128 46.11-22.795 28.354-19.989 55.479-50.782 78.443-89.052 15.874-26.455 29.603-55.91 41.062-87.983h-165.615zM353.313 774.686c22.963 38.271 50.086 69.065 78.443 89.052 15.127 10.668 30.547 18.266 46.11 22.795v-199.829h-165.615c11.462 32.070 25.19 61.525 41.062 87.983zM477.865 618.436v-136.533h-204.068c2.005 47.089 8.177 92.841 18.43 136.533h185.638zM102.28 277.104c-18.193 43.611-29.165 89.391-32.723 136.533h135.94c1.879-47.582 7.657-93.382 16.809-136.533h-120.026zM273.797 413.636h204.068v-136.533h-185.638c-10.253 43.691-16.425 89.444-18.43 136.533zM477.865 208.836v-199.829c-15.56 4.529-30.98 12.13-46.11 22.795-28.356 19.989-55.482 50.784-78.443 89.052-15.874 26.458-29.6 55.913-41.065 87.983h165.617zM670.686 120.854c-22.963-38.268-50.089-69.062-78.443-89.052-15.13-10.665-30.547-18.266-46.11-22.795v199.829h165.617c-11.462-32.070-25.19-61.525-41.065-87.983zM546.133 277.104v136.533h204.068c-2.005-47.089-8.177-92.843-18.432-136.533h-185.636zM818.503 481.904c-1.879 47.582-7.657 93.382-16.809 136.533h120.026c18.193-43.611 29.167-89.393 32.725-136.533h-135.942zM886.035 686.704h-102.293c-19.881 62.679-47.334 117.647-80.337 161.523 45.372-21.696 86.462-50.79 122.362-86.69 22.912-22.91 43.053-47.934 60.269-74.833zM198.233 761.536c35.902 35.902 76.992 64.994 122.362 86.69-33.005-43.876-60.454-98.844-80.337-161.523h-102.291c17.214 26.899 37.357 51.923 60.267 74.833zM137.967 208.836h102.291c19.883-62.679 47.334-117.647 80.339-161.525-45.372 21.696-86.462 50.79-122.362 86.692-22.912 22.91-43.055 47.934-60.269 74.833zM825.765 134.004c-35.9-35.902-76.992-64.996-122.362-86.692 33.005 43.876 60.457 98.846 80.337 161.525h102.293c-17.216-26.899-37.357-51.923-60.269-74.833z" />
<glyph unicode="&#xe903;" glyph-name="pwd-hidden" horiz-adv-x="1557" d="M778.664 960.080c-414.302 0-768.117-512.078-768.117-512.078s353.59-512.078 768.117-512.078c414.271 0 768.117 512.078 768.117 512.078s-353.621 512.078-768.117 512.078zM778.664-0.067c-314.127 0-600.858 335.378-688.297 448.069 87.502 112.689 374.362 448.069 688.297 448.069 314.127 0 600.826-335.378 688.297-448.069-87.534-112.689-374.362-448.069-688.297-448.069zM778.664 704.040c-141.398 0-256.041-114.642-256.041-256.041s114.642-256.041 256.041-256.041c141.398 0 256.041 114.642 256.041 256.041s-114.642 256.041-256.041 256.041zM778.664 255.973c-105.904 0-192.029 86.124-192.029 192.029s86.156 192.029 192.029 192.029 192.029-86.124 192.029-192.029-86.124-192.029-192.029-192.029z" />
<glyph unicode="&#xe904;" glyph-name="pwd-show" horiz-adv-x="1552" d="M776.002 640.002c-105.884 0-191.987-86.109-191.987-191.987s86.137-191.987 191.987-191.987 191.987 86.109 191.987 191.987-86.109 191.987-191.987 191.987zM776.002 959.979c-414.216 0-767.954-511.97-767.954-511.97s353.515-511.97 767.954-511.97c414.187 0 767.954 511.97 767.954 511.97s-353.547 511.97-767.954 511.97zM776.002 192.024c-141.367 0-255.985 114.619-255.985 255.985s114.619 255.985 255.985 255.985c141.367 0 255.985-114.619 255.985-255.985s-114.619-255.985-255.985-255.985z" />
<glyph unicode="&#xe905;" glyph-name="check" d="M904.897 959.949h-785.777c-65.743 0-119.057-53.291-119.057-119.057v-785.777c0-65.766 53.314-119.057 119.057-119.057h785.777c65.766 0 119.057 53.291 119.057 119.057v785.777c0 65.766-53.291 119.057-119.057 119.057zM438.525 245.606l-224.161 222.661 58.6 58.433 165.442-164.299 312.643 311.81 58.6-58.456-371.125-370.148z" />
<glyph unicode="&#xe906;" glyph-name="check-s" horiz-adv-x="1022" d="M912.573 808.005l-525.208-523.853-277.922 276.082-98.443-98.204 376.563-374.043 623.45 621.853z" />
<glyph unicode="&#xe907;" glyph-name="kefu" horiz-adv-x="1040" d="M518.235 829.402c-159.162 0-288.135-126.393-288.135-282.305 0-155.908 128.968-282.305 288.135-282.305s288.165 126.4 288.165 282.305c0 155.91-128.968 282.305-288.165 282.305v0zM185.501 438.716v260.617c-3.646 0-7.236-0.132-10.818-0.445 59.017 128.262 190.539 217.608 343.612 217.608s284.548-89.345 343.612-217.608c-3.582 0.262-7.17 0.445-10.818 0.445v-260.617c73.477 0 133.121 58.368 133.121 130.308 0 48.892-27.516 91.457-68.163 113.734-57.218 161.287-213.447 277.18-397.732 277.18s-340.484-115.845-397.724-277.152c-40.701-22.331-68.163-64.896-68.163-113.791 0.001-71.941 59.584-130.307 133.116-130.307v0zM805.787 289.33c-75.271-68.861-176.388-110.981-287.554-110.981-110.919 0-211.847 41.987-287.11 110.598-134.663-67.903-223.104-188.738-223.104-352.897h1023.956c0.001 164.474-90.053 285.446-226.17 353.28v0z" />
<glyph unicode="&#xe908;" glyph-name="avatar" d="M511.984 345.193c-166.88 0-302.613 136.585-302.613 304.598 0 167.938 135.77 304.516 302.613 304.516 166.841 0 302.611-136.578 302.611-304.593 0-168.013-135.73-304.521-302.611-304.521v0 0zM511.984 883.185c-127.875 0-231.893-104.745-231.893-233.431 0-128.725 104.018-233.431 231.893-233.431 127.87 0 231.891 104.705 231.891 233.431 0.075 128.686-104.020 233.431-231.891 233.431v0 0zM912.815-58.308c-19.48 0-35.36 15.92-35.36 35.6 0 202.85-163.92 367.901-365.471 367.901-201.593 0-365.516-165.050-365.516-367.901 0.042-19.61-15.795-35.6-35.323-35.6-19.523 0-35.36 15.92-35.36 35.6 0 242.101 195.721 439.031 436.199 439.031 240.511 0 436.151-196.931 436.151-439.031 0.081-19.68-15.79-35.6-35.32-35.6v0 0z" />
<glyph unicode="&#xe909;" glyph-name="vip" horiz-adv-x="1170" d="M1140.94 661.916c-17.784 18.054-42.735 28.58-67.867 28.58-25.161 0-50.143-10.496-67.897-28.58-17.784-18.054-28.1-43.425-28.1-68.947 0-22.612 8.097-45.045 22.252-62.439l-222.314-155.677-156.397 397.184c12.026 4.888 23.122 12.176 32.269 21.473 17.754 18.054 28.1 43.425 28.1 68.976 0 25.521-10.346 50.893-28.1 68.947-17.784 18.054-42.735 28.58-67.897 28.58-25.131 0-50.113-10.526-67.897-28.58-17.754-18.054-28.1-43.425-28.1-68.947 0-25.551 10.346-50.923 28.1-68.976 9.177-9.297 20.243-16.584 32.269-21.473l-156.397-397.184-222.284 155.707c14.185 17.394 22.282 39.826 22.282 62.409 0 25.521-10.346 50.893-28.13 68.947-17.784 18.084-42.765 28.58-67.897 28.58s-50.113-10.496-67.867-28.55c-17.784-18.084-28.13-43.455-28.13-68.976 0-25.551 10.346-50.893 28.13-68.976 17.754-18.054 42.735-28.58 67.867-28.58 6.118 0 12.206 0.63 18.174 1.829l85.861-373.552h768.038l85.831 373.552c5.998-1.2 12.086-1.829 18.204-1.829 25.131 0 50.083 10.496 67.867 28.55s28.13 43.425 28.13 68.976c0.030 25.551-10.346 50.923-28.1 68.976v0zM201.002-63.987h768.038v93.808h-768.038v-93.808z" />
<glyph unicode="&#xe90a;" glyph-name="credit" horiz-adv-x="1054" d="M1048.936 446.535c0 31.081-13.469 74.586-72.096 116.745 47.042 33.977 72.096 73.845 72.096 116.609 0 65.563-58.862 124.322-165.774 165.503-95.768 36.873-222.279 57.179-356.162 57.179s-260.395-20.306-356.195-57.179c-106.879-41.184-165.741-99.943-165.741-165.503 0-42.764 25.020-82.6 72.060-116.576-58.254-41.855-72.060-85.159-72.060-116.745 0-42.126 24.313-81.456 70.073-115.128-56.604-41.386-70.073-84.084-70.073-115.33 0-65.563 58.862-124.322 165.741-165.503 95.768-36.873 222.279-57.179 356.195-57.179s260.395 20.339 356.162 57.179c106.913 41.184 165.774 99.943 165.774 165.503 0 30.743-13.201 73.643-70.109 115.297 45.763 33.64 70.109 72.969 70.109 115.128v0zM200.807 777.141c86.474 33.302 202.343 51.654 326.229 51.654s239.722-18.319 326.229-51.654c73.207-28.184 116.913-64.552 116.913-97.249 0-32.73-43.707-69.064-116.913-97.249-86.474-33.302-202.343-51.654-326.229-51.654s-239.722 18.319-326.229 51.654c-73.207 28.184-116.913 64.552-116.913 97.249-0.033 32.697 43.674 69.064 116.913 97.249v0zM170.804 514.354c95.768-36.873 222.279-57.212 356.195-57.212s260.395 20.339 356.195 57.212c6.364 2.46 12.593 4.982 18.656 7.577l-0.169-0.268c44.146-24.075 68.423-50.778 68.423-75.124 0-32.697-43.707-69.064-116.913-97.249-86.474-33.302-202.343-51.654-326.229-51.654s-239.722 18.352-326.229 51.654c-73.207 28.184-116.913 64.552-116.913 97.249 0 24.28 24.885 51.35 68.694 75.227 5.961-2.526 12.021-4.982 18.286-7.409v0zM970.109 216.11c0-32.697-43.707-69.064-116.913-97.249-86.474-33.302-202.343-51.654-326.229-51.654s-239.722 18.352-326.229 51.654c-73.207 28.184-116.913 64.552-116.913 97.249 0 23.741 23.774 50.14 65.732 73.643 6.837-2.962 13.909-5.858 21.215-8.688 95.768-36.873 222.279-57.179 356.195-57.179s260.395 20.339 356.195 57.179c7.307 2.83 14.345 5.723 21.215 8.688 42.427-23.705 65.732-49.77 65.732-73.643v0z" />
<glyph unicode="&#xe90b;" glyph-name="msg" horiz-adv-x="1054" d="M527.014 845.247c253.783 0 459.535-178.718 459.535-399.172s-205.751-399.172-459.535-399.172c-36.763 0-72.34 4.15-106.61 11.237l-169.107-72.666v141.775c-111.418 72.844-183.817 188.348-183.817 318.827 0 220.462 205.751 399.172 459.535 399.172zM527.014 904.542c-286.096 0-518.835-205.665-518.835-458.467 0-136.527 66.588-262.351 183.817-349.696v-200.921l235.105 101.012c33.707-5.902 67.241-8.894 99.885-8.894 286.096 0 518.835 205.665 518.835 458.467s-232.705 458.499-518.803 458.499v0zM363.954 459.832c0-32.747-26.547-59.295-59.295-59.295s-59.295 26.547-59.295 59.295c0 32.747 26.547 59.295 59.295 59.295s59.295-26.547 59.295-59.295zM601.131 459.832c0-32.747-26.547-59.295-59.295-59.295s-59.295 26.547-59.295 59.295c0 32.747 26.547 59.295 59.295 59.295s59.295-26.547 59.295-59.295zM838.314 459.832c0-32.747-26.547-59.295-59.295-59.295s-59.295 26.547-59.295 59.295c0 32.747 26.547 59.295 59.295 59.295s59.295-26.547 59.295-59.295z" />
<glyph unicode="&#xe90c;" glyph-name="notice" d="M0.11 492.179c-0.847 3.203-0.92 463.992-0.11 467.821 155.584 0 311.242 0 467.158 0 0.147-0.92 0.368-1.878 0.479-2.798 0.074-0.847 0-1.73 0-2.577 0-152.271 0-304.542 0-456.85 0-1.804-0.147-3.571-0.258-5.559-155.953-0.037-311.5-0.037-467.269-0.037zM72.38 565.001c1.325-0.147 2.503-0.368 3.682-0.405 42.559-0.92 315.034-0.368 318.606 0.736 0 107.135 0 214.343 0 321.882-2.062 0.11-3.829 0.295-5.67 0.295-103.6 0-207.2 0-310.801 0-0.957 0-1.988 0.037-2.945-0.037-0.92-0.11-1.841-0.331-2.872-0.552 0-107.319 0-214.453 0-321.919zM1024.037 403.453c0-155.989 0-311.574 0-467.453-0.884-0.147-1.804-0.405-2.724-0.515-1.104-0.074-2.209 0-3.313 0-151.903 0-303.842 0-455.745 0-1.951 0-3.829 0-6.038 0 0 156.137 0 311.795 0 467.674 0.957 0.184 1.878 0.405 2.835 0.515 0.994 0.074 1.951 0 2.945 0 152.013 0 304.063 0 456.113 0 1.914 0 3.829-0.147 5.927-0.221zM629.222 330.704c-0.221-0.773-0.552-1.325-0.552-1.914 0-106.177 0-212.355 0-318.532 0-0.552 0.368-1.104 0.515-1.657 4.013-0.736 319.047-0.552 322.103 0.258 0.037 1.841 0.184 3.755 0.184 5.67 0 103.379 0 206.685 0 310.064 0 1.104 0.074 2.246-0.037 3.313-0.074 0.92-0.368 1.841-0.552 2.798-107.355 0-214.49 0-321.661 0zM-0.552-64.295c0 2.099 0 3.534 0 4.97 0 152.565 0 305.057 0 457.623 0 5.375 0 5.375 5.486 5.375 152.418 0 304.8 0 457.218 0 5.486 0 5.522 0 5.522-5.412 0-152.418 0-304.8 0-457.218 0-0.626 0-1.215 0-1.841-0.074-3.461-0.258-3.645-3.829-3.718-0.847-0.037-1.73 0-2.577 0-151.792 0-303.585 0-455.377 0-1.988 0-3.902 0.11-6.443 0.221zM72.38 8.675c4.749-0.81 319.379-0.626 322.25 0.184 0 107.135 0 214.343 0 321.367-0.479 0.295-0.663 0.479-0.884 0.515-0.589 0.074-1.215 0.147-1.804 0.147-105.809 0-211.618 0-317.427 0-0.479 0-0.957-0.147-1.436-0.258-0.11 0-0.184-0.11-0.295-0.221-0.11-0.074-0.184-0.147-0.405-0.331 0-107.024 0-214.122 0-321.404zM787.2 960.258c130.881-0.221 233.303-106.73 233.597-233.634 0.258-128.23-103.306-234.26-232.861-234.665-130.034-0.405-234.407 105.551-234.334 234.297 0.11 127.457 102.974 233.782 233.597 234.002zM787.089 564.633c89.536 0.331 160.812 72.528 160.923 161.18 0.11 89.757-72.086 161.622-160.702 161.696-88.469 0.037-160.775-71.497-160.923-161.107-0.147-89.316 71.497-161.365 160.702-161.769z" />
<glyph unicode="&#xe90d;" glyph-name="vip2" horiz-adv-x="1054" d="M619.696 670.36c33.793-56.071 67.617-112.205 101.566-168.495 0.97 0.532 1.72 0.813 2.347 1.283 22.31 15.833 44.588 31.696 66.929 47.498 1.753 1.221 2.347 2.535 2.252 4.63-0.845 15.958 0.689 31.696 6.226 46.747 16.051 43.742 46.841 71.435 92.367 80.571 65.959 13.267 126.004-28.285 142.024-88.393 16.333-61.391-17.554-125.441-77.567-146.53-5.288-1.877-4.224-0.657-5.476-5.976-11.984-51.566-23.874-103.162-35.827-154.697-10.701-46.121-21.434-92.18-32.135-138.269-2.816-12.172-5.601-24.312-8.417-36.484-0.25-1.002-0.594-1.94-0.907-3.098-234.579 0-469.064 0-703.861 0-0.876 3.599-1.784 7.197-2.628 10.827-15.457 66.772-30.914 133.544-46.371 200.285-9.481 40.927-19.025 81.823-28.474 122.781-0.532 2.316-1.565 3.411-3.817 4.224-39.613 14.362-65.896 41.647-78.224 82.073-4.318 14.049-5.444 28.536-4.38 43.211 3.723 50.376 39.675 95.778 92.085 108.825 67.836 16.865 134.639-25.094 149.659-92.367 2.472-11.046 3.098-22.247 2.535-33.511-0.094-2.252 0.594-3.63 2.378-4.912 22.247-15.707 44.431-31.54 66.647-47.31 0.657-0.47 1.377-0.813 2.44-1.439 33.886 56.227 67.742 112.33 101.691 168.651-0.72 1.126-1.439 2.252-2.19 3.348-10.295 14.737-17.241 30.945-20.025 48.687-6.258 39.926 4.067 75.158 31.603 104.851 18.524 19.932 41.521 32.135 68.337 36.578 67.679 11.202 127.443-33.104 140.335-94.776 7.165-34.2 0.72-65.927-18.805-94.964-0.625-0.939-1.283-1.908-1.94-2.848 0-0.157-0.094-0.344-0.375-1.002zM503.674 685.598c-2.065-4.756-162.862-270.938-164.489-272.47-5.851 3.348-160.203 113.457-161.705 115.396 0.657 1.002 1.314 2.034 1.94 3.129 8.167 13.768 10.858 28.505 7.385 44.15-6.946 31.321-37.047 51.847-69.15 46.747-34.794-5.538-57.323-39.269-49.344-73.687 6.696-28.943 35.232-49.219 64.832-45.996 2.535 0.282 5.1 0.563 7.76 0.813 0.375-1.345 0.689-2.44 0.97-3.535 11.922-51.472 23.843-102.912 35.796-154.383 13.048-56.353 26.064-112.674 39.206-168.964 1.565-6.758 0-5.976 7.604-5.976 197.814-0.031 395.658 0 593.471 0 1.157 0 2.285-0.031 3.442 0 0.907 0.062 1.815 0.188 2.972 0.344 25.72 110.891 51.44 221.688 77.191 332.766 16.051-3.129 30.976-1.002 44.775 7.228 13.861 8.386 23.123 20.401 27.441 36.109 6.946 25.282-3.473 52.097-25.657 66.397-22.278 14.362-51.377 12.642-71.841-4.287-10.075-8.354-16.865-18.899-20.088-31.603-4.506-17.742-1.033-34.231 9.105-49.719-54.132-38.487-108.074-76.848-161.987-115.177-3.254 4.067-163.551 270.437-164.177 272.846 14.925 4.944 26.784 13.924 34.763 27.66 7.979 13.768 10.138 28.536 6.54 43.993-6.29 27.253-30.914 46.559-59.012 46.59-28.192 0-52.629-18.961-59.232-46.277-3.254-13.298-2.065-26.315 3.599-38.737 7.604-16.709 20.464-27.535 37.891-33.354zM520.915 82.646c109.984 0 219.966 0 329.95 0 4.287 0 8.48-0.125 12.609-1.502 13.392-4.443 22.184-17.554 21.152-31.572-1.033-14.237-11.64-25.94-25.689-28.161-2.44-0.407-4.975-0.532-7.447-0.532-101.223-0.031-202.506 0-303.76 0-119.245 0-238.459 0-357.704-0.031-3.661 0-7.259 0.25-10.795 1.283-13.83 4.067-23.030 17.397-22.059 31.853 0.97 14.112 11.765 26.095 25.689 28.254 2.753 0.438 5.601 0.375 8.417 0.407 109.889 0 219.778 0 329.636 0z" />
<glyph unicode="&#xe90e;" glyph-name="security" horiz-adv-x="967" d="M966.997 727.808c-43.093 2.873-86.386 10.61-123.563 21.988-12.032 3.47-24.064 7.31-36.153 11.463-25.515 7.196-60.245 21.504-99.698 41.842-0.427 0.199-0.825 0.427-1.252 0.626-9.244 4.779-18.745 9.899-28.388 15.332-13.028 7.14-25.884 14.763-38.741 22.699-0.512 0.313-0.996 0.597-1.479 0.91-9.244 5.717-18.432 11.634-27.591 17.749-5.945 3.897-11.89 8.078-17.835 12.203-4.466 3.129-8.932 6.087-13.454 9.33-32.711 23.467-65.052 49.721-95.289 78.052-30.265-28.331-62.578-54.585-95.317-78.023-4.466-3.243-8.96-6.201-13.426-9.33-5.973-4.124-11.918-8.306-17.835-12.203-9.131-6.116-18.347-12.032-27.563-17.749-0.484-0.313-0.996-0.597-1.479-0.91-12.885-7.936-25.742-15.559-38.77-22.699-9.643-5.433-19.115-10.553-28.416-15.332-0.398-0.228-0.825-0.455-1.223-0.654-39.424-20.338-74.183-34.617-99.698-41.842-12.117-4.153-24.121-7.993-36.181-11.463-37.148-11.378-80.441-19.143-123.534-21.988h-0.114c1.252-18.489 2.56-43.036 4.068-69.604 0.228 0 0.512 0 0.796 0.028 7.282-99.157 28.018-240.242 59.307-323.129 1.394-3.612 2.588-7.396 4.011-11.008 0.654-1.678 1.422-3.214 2.076-4.921 74.923-185.316 205.056-320.114 361.444-369.522v-0.54c20.679-6.542 38.116-10.581 51.854-13.113 13.739 2.532 31.175 6.571 51.826 13.113v0.54c156.388 49.408 286.521 184.235 361.444 369.522 0.654 1.707 1.451 3.243 2.105 4.921 1.394 3.612 2.588 7.396 3.982 11.008 31.317 82.887 52.053 223.972 59.335 323.129 0.284-0.028 0.597-0.028 0.796-0.028 1.508 26.567 2.816 51.115 4.068 69.604h-0.114zM910.478 679.908l-0.597-10.866c-0.597-2.475-1.024-5.006-1.223-7.566-6.77-92.331-25.771-229.177-56.405-310.3-0.853-2.19-1.678-4.437-2.446-6.656-0.484-1.422-0.967-2.816-1.735-4.636-0.626-1.422-1.252-2.844-1.65-3.897-69.66-172.288-189.468-296.306-328.704-340.309-2.247-0.683-4.409-1.564-6.514-2.503-9.444-2.844-18.688-5.262-27.676-7.225-8.903 1.963-18.119 4.352-27.563 7.196-2.133 0.967-4.324 1.792-6.628 2.532-139.236 44.004-259.015 168.021-328.533 339.996-0.54 1.365-1.138 2.731-2.020 4.75-0.54 1.337-0.996 2.731-1.508 4.124-0.796 2.247-1.593 4.494-2.304 6.372-30.748 81.408-49.778 218.283-56.548 310.585-0.171 2.56-0.597 5.12-1.223 7.595l-0.54 10.61c-0.085 1.707-0.199 3.413-0.284 5.092 29.383 4.352 57.742 10.638 83.513 18.546 12.089 3.499 24.377 7.367 37.49 11.861 30.094 8.676 67.385 24.263 108.004 45.198 0.711 0.341 1.365 0.683 1.963 0.996 9.813 5.092 19.883 10.496 29.611 15.986 12.8 7.026 26.254 14.876 41.159 24.092 0.427 0.256 1.138 0.711 1.564 0.967 9.785 6.059 19.541 12.316 28.786 18.517 5.433 3.556 10.866 7.31 16.299 11.093l2.93 2.020 4.807 3.328c3.072 2.105 6.172 4.238 8.988 6.286 21.362 15.303 42.098 31.403 62.066 48.156 19.911-16.754 40.619-32.825 61.838-48.014 3.044-2.219 6.116-4.324 9.188-6.428l6.94-4.807c5.689-3.954 11.406-7.908 16.668-11.349 9.671-6.514 19.456-12.772 28.302-18.261l2.475-1.536c14.791-9.131 28.245-17.010 40.676-23.808 10.24-5.774 20.281-11.179 29.867-16.128 0.484-0.256 1.138-0.597 1.82-0.91 40.789-21.049 78.222-36.722 108.43-45.426 13.141-4.494 25.401-8.334 36.494-11.548 26.425-8.107 55.012-14.45 84.508-18.83-0.085-1.621-0.199-3.271-0.284-4.892v0zM720.1 563.172l-279.723-274.66-143.189 140.629c-9.927 9.728-25.998 9.728-35.925 0-9.927-9.756-9.927-25.515 0-35.271l161.166-158.236c4.978-4.864 11.463-7.31 17.948-7.31s12.999 2.446 17.948 7.31l297.7 292.295c9.927 9.728 9.927 25.486 0 35.243-9.956 9.728-25.998 9.728-35.925 0v0z" />
<glyph unicode="&#xf18a;" glyph-name="weibo" d="M385.714 226.286q12 19.429 6.286 39.429t-25.714 28.571q-19.429 8-41.714 0.571t-34.286-26.286q-12.571-19.429-7.429-39.143t24.571-28.857 42.571-1.429 35.714 27.143zM439.429 295.429q4.571 7.429 2 15.143t-10 10.571q-8 2.857-16.286-0.286t-12.286-10.571q-9.714-17.714 7.429-25.714 8-2.857 16.571 0.286t12.571 10.571zM538.857 234.286q-25.714-58.286-90.286-85.714t-128-6.857q-61.143 19.429-84.286 72.286t3.714 107.143q26.857 53.143 86.571 79.429t120.286 10.857q63.429-16.571 90.571-68.286t1.429-108.857zM717.143 325.714q-5.143 54.857-50.857 97.143t-119.143 62.286-156.857 12q-127.429-13.143-211.143-80.857t-75.714-151.143q5.143-54.857 50.857-97.143t119.143-62.286 156.857-12q127.429 13.143 211.143 80.857t75.714 151.143zM893.143 323.429q0-38.857-21.143-79.714t-62.286-78.286-96.286-67.143-129.143-47.429-154.571-17.714-157.143 19.143-137.429 53.143-98 86.286-37.143 114q0 65.714 39.714 140t112.857 147.429q96.571 96.571 195.143 134.857t140.857-4q37.143-36.571 11.429-119.429-2.286-8-0.571-11.429t5.714-4 8.286 0.286 7.714 2l3.429 1.143q79.429 33.714 140.571 33.714t87.429-34.857q25.714-36 0-101.714-1.143-7.429-2.571-11.429t2.571-7.143 6.857-4.286 9.714-3.429q32.571-10.286 58.857-26.857t45.714-46.571 19.429-66.571zM850.857 680q24-26.857 31.143-62t-3.714-67.143q-4.571-13.143-16.857-19.429t-25.429-2.286q-13.143 4.571-19.429 16.857t-2.286 25.429q11.429 36-13.714 63.429t-61.143 20q-13.714-2.857-25.714 4.571t-14.286 21.143q-2.857 13.714 4.571 25.429t21.143 14.571q34.286 7.429 68-3.143t57.714-37.429zM954.286 773.143q49.714-54.857 64.286-127.143t-7.714-138q-5.143-15.429-19.429-22.857t-29.714-2.286-22.857 19.429-2.857 29.714q16 46.857 5.714 98.286t-45.714 90.286q-35.429 39.429-84.571 54.571t-98.857 4.857q-16-3.429-29.714 5.429t-17.143 24.857 5.429 29.429 24.857 16.857q70.286 14.857 139.429-6.571t118.857-76.857z" />
</font>
</defs>
</svg>
